<?xml version="1.0" standalone="no"?><svg xmlns="http://www.w3.org/2000/svg" viewBox="0 0 1440 320"><path fill="#5758BB" fill-opacity="1" d="M0,64L20,58.7C40,53,80,43,120,48C160,53,200,75,240,85.3C280,96,320,96,360,122.7C400,149,440,203,480,218.7C520,235,560,213,600,197.3C640,181,680,171,720,176C760,181,800,203,840,176C880,149,920,75,960,58.7C1000,43,1040,85,1080,101.3C1120,117,1160,107,1200,101.3C1240,96,1280,96,1320,133.3C1360,171,1400,245,1420,282.7L1440,320L1440,320L1420,320C1400,320,1360,320,1320,320C1280,320,1240,320,1200,320C1160,320,1120,320,1080,320C1040,320,1000,320,960,320C920,320,880,320,840,320C800,320,760,320,720,320C680,320,640,320,600,320C560,320,520,320,480,320C440,320,400,320,360,320C320,320,280,320,240,320C200,320,160,320,120,320C80,320,40,320,20,320L0,320Z"></path></svg>