<svg id="visual" viewBox="0 0 960 540" width="960" height="540" xmlns="http://www.w3.org/2000/svg" xmlns:xlink="http://www.w3.org/1999/xlink" version="1.1"><path d="M149 0L153 4.5C157 9 165 18 173.8 27C182.7 36 192.3 45 164 54C135.7 63 69.3 72 83.7 81C98 90 193 99 229.8 108C266.7 117 245.3 126 210.7 135C176 144 128 153 111.7 162C95.3 171 110.7 180 142.8 189C175 198 224 207 221.2 216C218.3 225 163.7 234 122.5 243C81.3 252 53.7 261 39.8 270C26 279 26 288 33.8 297C41.7 306 57.3 315 84 324C110.7 333 148.3 342 181.5 351C214.7 360 243.3 369 222.7 378C202 387 132 396 92.8 405C53.7 414 45.3 423 54.8 432C64.3 441 91.7 450 126 459C160.3 468 201.7 477 189.5 486C177.3 495 111.7 504 81.5 513C51.3 522 56.7 531 59.3 535.5L62 540" fill="none" stroke-linecap="round" stroke-linejoin="miter" stroke="#eccc68" stroke-width="51"></path></svg>